<mxfile host="app.diagrams.net" modified="2023-11-28T23:21:42.850Z" agent="Mozilla/5.0 (Windows NT 10.0; Win64; x64) AppleWebKit/537.36 (KHTML, like Gecko) Chrome/118.0.0.0 Safari/537.36 OPR/104.0.0.0" etag="IXvXLMR3BPab7TD9mBl5" version="22.1.4" type="device">
  <diagram name="Page-1" id="bylLVdhNhdebg491qZv4">
    <mxGraphModel dx="1657" dy="1540" grid="1" gridSize="10" guides="1" tooltips="1" connect="1" arrows="1" fold="1" page="1" pageScale="1" pageWidth="850" pageHeight="1100" math="0" shadow="0">
      <root>
        <mxCell id="0" />
        <mxCell id="1" parent="0" />
        <mxCell id="D5_zNUtGiPTcxHI_EXiZ-26" value="" style="edgeStyle=orthogonalEdgeStyle;rounded=0;orthogonalLoop=1;jettySize=auto;html=1;entryX=0.5;entryY=0;entryDx=0;entryDy=0;" edge="1" parent="1" target="D5_zNUtGiPTcxHI_EXiZ-115">
          <mxGeometry relative="1" as="geometry">
            <mxPoint x="170" y="-110" as="sourcePoint" />
            <mxPoint x="169.9743589743589" y="-40" as="targetPoint" />
          </mxGeometry>
        </mxCell>
        <mxCell id="D5_zNUtGiPTcxHI_EXiZ-11" style="edgeStyle=orthogonalEdgeStyle;rounded=0;orthogonalLoop=1;jettySize=auto;html=1;entryX=0.5;entryY=0;entryDx=0;entryDy=0;" edge="1" parent="1" source="D5_zNUtGiPTcxHI_EXiZ-1" target="D5_zNUtGiPTcxHI_EXiZ-4">
          <mxGeometry relative="1" as="geometry" />
        </mxCell>
        <mxCell id="D5_zNUtGiPTcxHI_EXiZ-1" value="&lt;font style=&quot;font-size: 10px;&quot; face=&quot;Verdana&quot;&gt;input number of &lt;br&gt;sports wanted to check&amp;nbsp;&lt;/font&gt;" style="shape=parallelogram;perimeter=parallelogramPerimeter;whiteSpace=wrap;html=1;fixedSize=1;" vertex="1" parent="1">
          <mxGeometry x="110" y="160" width="120" height="60" as="geometry" />
        </mxCell>
        <mxCell id="D5_zNUtGiPTcxHI_EXiZ-12" style="edgeStyle=orthogonalEdgeStyle;rounded=0;orthogonalLoop=1;jettySize=auto;html=1;entryX=0.5;entryY=0;entryDx=0;entryDy=0;" edge="1" parent="1" source="D5_zNUtGiPTcxHI_EXiZ-4" target="D5_zNUtGiPTcxHI_EXiZ-10">
          <mxGeometry relative="1" as="geometry" />
        </mxCell>
        <mxCell id="D5_zNUtGiPTcxHI_EXiZ-16" value="" style="edgeStyle=orthogonalEdgeStyle;rounded=0;orthogonalLoop=1;jettySize=auto;html=1;" edge="1" parent="1" source="D5_zNUtGiPTcxHI_EXiZ-4">
          <mxGeometry relative="1" as="geometry">
            <mxPoint x="460" y="340" as="targetPoint" />
          </mxGeometry>
        </mxCell>
        <mxCell id="D5_zNUtGiPTcxHI_EXiZ-4" value="&lt;font style=&quot;font-size: 10px;&quot; face=&quot;Verdana&quot;&gt;input number is higher than 10&lt;/font&gt;" style="rhombus;whiteSpace=wrap;html=1;" vertex="1" parent="1">
          <mxGeometry x="115" y="290" width="110" height="100" as="geometry" />
        </mxCell>
        <mxCell id="D5_zNUtGiPTcxHI_EXiZ-21" value="" style="edgeStyle=orthogonalEdgeStyle;rounded=0;orthogonalLoop=1;jettySize=auto;html=1;" edge="1" parent="1" source="D5_zNUtGiPTcxHI_EXiZ-9">
          <mxGeometry relative="1" as="geometry">
            <mxPoint x="460" y="710" as="targetPoint" />
          </mxGeometry>
        </mxCell>
        <mxCell id="D5_zNUtGiPTcxHI_EXiZ-9" value="&lt;font style=&quot;font-size: 10px;&quot; face=&quot;Verdana&quot;&gt;input number is less than or equal to 10&amp;nbsp;&lt;/font&gt;" style="rhombus;whiteSpace=wrap;html=1;" vertex="1" parent="1">
          <mxGeometry x="107.5" y="650" width="125" height="120" as="geometry" />
        </mxCell>
        <mxCell id="D5_zNUtGiPTcxHI_EXiZ-13" style="edgeStyle=orthogonalEdgeStyle;rounded=0;orthogonalLoop=1;jettySize=auto;html=1;entryX=0.5;entryY=0;entryDx=0;entryDy=0;" edge="1" parent="1" source="D5_zNUtGiPTcxHI_EXiZ-10" target="D5_zNUtGiPTcxHI_EXiZ-9">
          <mxGeometry relative="1" as="geometry" />
        </mxCell>
        <mxCell id="D5_zNUtGiPTcxHI_EXiZ-19" value="" style="edgeStyle=orthogonalEdgeStyle;rounded=0;orthogonalLoop=1;jettySize=auto;html=1;" edge="1" parent="1" source="D5_zNUtGiPTcxHI_EXiZ-10">
          <mxGeometry relative="1" as="geometry">
            <mxPoint x="460" y="505" as="targetPoint" />
          </mxGeometry>
        </mxCell>
        <mxCell id="D5_zNUtGiPTcxHI_EXiZ-10" value="&lt;font style=&quot;font-size: 10px;&quot; face=&quot;Verdana&quot;&gt;input number is 0 &lt;br&gt;or an negative &lt;br&gt;number&amp;nbsp;&lt;/font&gt;" style="rhombus;whiteSpace=wrap;html=1;" vertex="1" parent="1">
          <mxGeometry x="100" y="440" width="140" height="130" as="geometry" />
        </mxCell>
        <mxCell id="D5_zNUtGiPTcxHI_EXiZ-17" value="&lt;font style=&quot;font-size: 10px;&quot; face=&quot;Verdana&quot;&gt;true&lt;/font&gt;" style="text;html=1;strokeColor=none;fillColor=none;align=center;verticalAlign=middle;whiteSpace=wrap;rounded=0;" vertex="1" parent="1">
          <mxGeometry x="300" y="300" width="60" height="30" as="geometry" />
        </mxCell>
        <mxCell id="D5_zNUtGiPTcxHI_EXiZ-31" value="" style="edgeStyle=orthogonalEdgeStyle;rounded=0;orthogonalLoop=1;jettySize=auto;html=1;" edge="1" parent="1" target="D5_zNUtGiPTcxHI_EXiZ-30">
          <mxGeometry relative="1" as="geometry">
            <mxPoint x="600" y="710" as="sourcePoint" />
          </mxGeometry>
        </mxCell>
        <mxCell id="D5_zNUtGiPTcxHI_EXiZ-27" style="edgeStyle=orthogonalEdgeStyle;rounded=0;orthogonalLoop=1;jettySize=auto;html=1;entryX=0.5;entryY=0;entryDx=0;entryDy=0;" edge="1" parent="1" target="D5_zNUtGiPTcxHI_EXiZ-1">
          <mxGeometry relative="1" as="geometry">
            <mxPoint x="170" y="90" as="sourcePoint" />
          </mxGeometry>
        </mxCell>
        <mxCell id="D5_zNUtGiPTcxHI_EXiZ-28" value="&lt;font style=&quot;font-size: 10px;&quot; face=&quot;Verdana&quot;&gt;true&lt;/font&gt;" style="text;html=1;strokeColor=none;fillColor=none;align=center;verticalAlign=middle;whiteSpace=wrap;rounded=0;" vertex="1" parent="1">
          <mxGeometry x="320" y="470" width="60" height="30" as="geometry" />
        </mxCell>
        <mxCell id="D5_zNUtGiPTcxHI_EXiZ-29" value="&lt;font style=&quot;font-size: 10px;&quot; face=&quot;Verdana&quot;&gt;true&lt;/font&gt;" style="text;html=1;strokeColor=none;fillColor=none;align=center;verticalAlign=middle;whiteSpace=wrap;rounded=0;" vertex="1" parent="1">
          <mxGeometry x="320" y="670" width="60" height="30" as="geometry" />
        </mxCell>
        <mxCell id="D5_zNUtGiPTcxHI_EXiZ-33" value="" style="edgeStyle=orthogonalEdgeStyle;rounded=0;orthogonalLoop=1;jettySize=auto;html=1;" edge="1" parent="1" source="D5_zNUtGiPTcxHI_EXiZ-30" target="D5_zNUtGiPTcxHI_EXiZ-32">
          <mxGeometry relative="1" as="geometry" />
        </mxCell>
        <mxCell id="D5_zNUtGiPTcxHI_EXiZ-166" style="edgeStyle=orthogonalEdgeStyle;rounded=0;orthogonalLoop=1;jettySize=auto;html=1;entryX=0.5;entryY=0;entryDx=0;entryDy=0;" edge="1" parent="1" source="D5_zNUtGiPTcxHI_EXiZ-30" target="D5_zNUtGiPTcxHI_EXiZ-44">
          <mxGeometry relative="1" as="geometry">
            <mxPoint x="750" y="840" as="targetPoint" />
            <Array as="points">
              <mxPoint x="750" y="820" />
              <mxPoint x="510" y="820" />
            </Array>
          </mxGeometry>
        </mxCell>
        <mxCell id="D5_zNUtGiPTcxHI_EXiZ-30" value="&lt;font style=&quot;font-size: 10px;&quot; face=&quot;Verdana&quot;&gt;i=0; i &amp;lt; x&lt;/font&gt;" style="rhombus;whiteSpace=wrap;html=1;" vertex="1" parent="1">
          <mxGeometry x="690" y="662.5" width="120" height="95" as="geometry" />
        </mxCell>
        <mxCell id="D5_zNUtGiPTcxHI_EXiZ-32" value="&lt;font style=&quot;font-size: 10px;&quot; face=&quot;Verdana&quot;&gt;scan&amp;nbsp; sport[i]&lt;/font&gt;" style="shape=parallelogram;perimeter=parallelogramPerimeter;whiteSpace=wrap;html=1;fixedSize=1;" vertex="1" parent="1">
          <mxGeometry x="890" y="680" width="120" height="60" as="geometry" />
        </mxCell>
        <mxCell id="D5_zNUtGiPTcxHI_EXiZ-34" value="&lt;font style=&quot;font-size: 10px;&quot; face=&quot;Verdana&quot;&gt;i ++&lt;/font&gt;" style="whiteSpace=wrap;html=1;" vertex="1" parent="1">
          <mxGeometry x="820" y="590" width="70" height="40" as="geometry" />
        </mxCell>
        <mxCell id="D5_zNUtGiPTcxHI_EXiZ-41" value="" style="endArrow=classic;html=1;rounded=0;entryX=1;entryY=0.5;entryDx=0;entryDy=0;" edge="1" parent="1" target="D5_zNUtGiPTcxHI_EXiZ-34">
          <mxGeometry width="50" height="50" relative="1" as="geometry">
            <mxPoint x="960" y="680" as="sourcePoint" />
            <mxPoint x="960" y="600" as="targetPoint" />
            <Array as="points">
              <mxPoint x="960" y="610" />
            </Array>
          </mxGeometry>
        </mxCell>
        <mxCell id="D5_zNUtGiPTcxHI_EXiZ-42" value="" style="endArrow=classic;html=1;rounded=0;entryX=0.5;entryY=0;entryDx=0;entryDy=0;" edge="1" parent="1" target="D5_zNUtGiPTcxHI_EXiZ-30">
          <mxGeometry width="50" height="50" relative="1" as="geometry">
            <mxPoint x="820" y="610" as="sourcePoint" />
            <mxPoint x="870" y="560" as="targetPoint" />
            <Array as="points">
              <mxPoint x="750" y="610" />
            </Array>
          </mxGeometry>
        </mxCell>
        <mxCell id="D5_zNUtGiPTcxHI_EXiZ-43" value="&lt;font style=&quot;font-size: 10px;&quot; face=&quot;Verdana&quot;&gt;true&lt;/font&gt;" style="text;html=1;strokeColor=none;fillColor=none;align=center;verticalAlign=middle;whiteSpace=wrap;rounded=0;" vertex="1" parent="1">
          <mxGeometry x="820" y="680" width="60" height="30" as="geometry" />
        </mxCell>
        <mxCell id="D5_zNUtGiPTcxHI_EXiZ-47" value="" style="edgeStyle=orthogonalEdgeStyle;rounded=0;orthogonalLoop=1;jettySize=auto;html=1;" edge="1" parent="1" source="D5_zNUtGiPTcxHI_EXiZ-44">
          <mxGeometry relative="1" as="geometry">
            <mxPoint x="510" y="1057.5" as="targetPoint" />
          </mxGeometry>
        </mxCell>
        <mxCell id="D5_zNUtGiPTcxHI_EXiZ-44" value="&lt;font style=&quot;font-size: 10px;&quot; face=&quot;Verdana&quot;&gt;strcpy(longest_word, sport[i])&lt;/font&gt;" style="whiteSpace=wrap;html=1;" vertex="1" parent="1">
          <mxGeometry x="430" y="940" width="160" height="45" as="geometry" />
        </mxCell>
        <mxCell id="D5_zNUtGiPTcxHI_EXiZ-55" style="edgeStyle=orthogonalEdgeStyle;rounded=0;orthogonalLoop=1;jettySize=auto;html=1;entryX=0.5;entryY=0;entryDx=0;entryDy=0;" edge="1" parent="1" target="D5_zNUtGiPTcxHI_EXiZ-54">
          <mxGeometry relative="1" as="geometry">
            <mxPoint x="510" y="1117.5" as="sourcePoint" />
          </mxGeometry>
        </mxCell>
        <mxCell id="D5_zNUtGiPTcxHI_EXiZ-58" value="" style="edgeStyle=orthogonalEdgeStyle;rounded=0;orthogonalLoop=1;jettySize=auto;html=1;" edge="1" parent="1" source="D5_zNUtGiPTcxHI_EXiZ-54" target="D5_zNUtGiPTcxHI_EXiZ-57">
          <mxGeometry relative="1" as="geometry" />
        </mxCell>
        <mxCell id="D5_zNUtGiPTcxHI_EXiZ-54" value="&lt;font style=&quot;font-size: 10px;&quot; face=&quot;Verdana&quot;&gt;max=strlen(sport[0])&lt;/font&gt;" style="rounded=0;whiteSpace=wrap;html=1;" vertex="1" parent="1">
          <mxGeometry x="450" y="1170" width="120" height="60" as="geometry" />
        </mxCell>
        <mxCell id="D5_zNUtGiPTcxHI_EXiZ-56" value="&lt;font style=&quot;font-size: 10px;&quot; face=&quot;Verdana&quot;&gt;Start&lt;/font&gt;" style="rounded=1;whiteSpace=wrap;html=1;" vertex="1" parent="1">
          <mxGeometry x="113" y="-170" width="120" height="60" as="geometry" />
        </mxCell>
        <mxCell id="D5_zNUtGiPTcxHI_EXiZ-61" value="" style="edgeStyle=orthogonalEdgeStyle;rounded=0;orthogonalLoop=1;jettySize=auto;html=1;" edge="1" parent="1" source="D5_zNUtGiPTcxHI_EXiZ-57">
          <mxGeometry relative="1" as="geometry">
            <mxPoint x="230" y="1480" as="targetPoint" />
          </mxGeometry>
        </mxCell>
        <mxCell id="D5_zNUtGiPTcxHI_EXiZ-67" value="" style="edgeStyle=orthogonalEdgeStyle;rounded=0;orthogonalLoop=1;jettySize=auto;html=1;" edge="1" parent="1" source="D5_zNUtGiPTcxHI_EXiZ-57" target="D5_zNUtGiPTcxHI_EXiZ-66">
          <mxGeometry relative="1" as="geometry" />
        </mxCell>
        <mxCell id="D5_zNUtGiPTcxHI_EXiZ-57" value="&lt;font face=&quot;Verdana&quot; style=&quot;font-size: 10px;&quot;&gt;i =1 ; i &amp;lt;x&amp;nbsp;&lt;/font&gt;" style="rhombus;whiteSpace=wrap;html=1;rounded=0;" vertex="1" parent="1">
          <mxGeometry x="470" y="1300" width="80" height="80" as="geometry" />
        </mxCell>
        <mxCell id="D5_zNUtGiPTcxHI_EXiZ-175" style="edgeStyle=orthogonalEdgeStyle;rounded=0;orthogonalLoop=1;jettySize=auto;html=1;" edge="1" parent="1" source="D5_zNUtGiPTcxHI_EXiZ-62">
          <mxGeometry relative="1" as="geometry">
            <mxPoint x="2080" y="2370" as="targetPoint" />
          </mxGeometry>
        </mxCell>
        <mxCell id="D5_zNUtGiPTcxHI_EXiZ-62" value="&lt;font style=&quot;font-size: 10px;&quot; face=&quot;Verdana&quot;&gt;input number is higher &lt;br&gt;then maximum!&lt;br style=&quot;border-color: var(--border-color);&quot;&gt;&lt;span style=&quot;&quot;&gt;Please try again.&lt;/span&gt;&lt;/font&gt;" style="shape=parallelogram;perimeter=parallelogramPerimeter;whiteSpace=wrap;html=1;fixedSize=1;" vertex="1" parent="1">
          <mxGeometry x="450" y="300" width="150" height="75" as="geometry" />
        </mxCell>
        <mxCell id="D5_zNUtGiPTcxHI_EXiZ-176" style="edgeStyle=orthogonalEdgeStyle;rounded=0;orthogonalLoop=1;jettySize=auto;html=1;" edge="1" parent="1" source="D5_zNUtGiPTcxHI_EXiZ-63">
          <mxGeometry relative="1" as="geometry">
            <mxPoint x="1900" y="2370" as="targetPoint" />
          </mxGeometry>
        </mxCell>
        <mxCell id="D5_zNUtGiPTcxHI_EXiZ-63" value="&lt;font style=&quot;font-size: 10px;&quot; face=&quot;Verdana&quot;&gt;&lt;font style=&quot;font-size: 10px;&quot;&gt;program can&#39;t check list&lt;br&gt;&amp;nbsp;with&lt;/font&gt;&lt;span style=&quot;&quot;&gt;(inputted x number )&lt;/span&gt;&lt;/font&gt;" style="shape=parallelogram;perimeter=parallelogramPerimeter;whiteSpace=wrap;html=1;fixedSize=1;" vertex="1" parent="1">
          <mxGeometry x="450" y="470" width="150" height="65" as="geometry" />
        </mxCell>
        <mxCell id="D5_zNUtGiPTcxHI_EXiZ-64" value="&lt;div style=&quot;border-color: var(--border-color); font-size: 10px;&quot;&gt;&lt;font style=&quot;font-size: 10px;&quot; face=&quot;Verdana&quot;&gt;&lt;font style=&quot;border-color: var(--border-color); font-size: 10px;&quot;&gt;Please enter&amp;nbsp;(inputted x number)&amp;nbsp;&lt;/font&gt;&lt;span style=&quot;background-color: initial;&quot;&gt;sports&lt;/span&gt;&lt;/font&gt;&lt;/div&gt;&lt;div style=&quot;border-color: var(--border-color); font-size: 10px;&quot;&gt;&lt;font style=&quot;font-size: 10px;&quot; face=&quot;Verdana&quot;&gt;&lt;span style=&quot;background-color: initial;&quot;&gt;&amp;nbsp;from provided list&lt;/span&gt;&lt;/font&gt;&lt;/div&gt;" style="shape=parallelogram;perimeter=parallelogramPerimeter;whiteSpace=wrap;html=1;fixedSize=1;" vertex="1" parent="1">
          <mxGeometry x="450" y="670" width="160" height="80" as="geometry" />
        </mxCell>
        <mxCell id="D5_zNUtGiPTcxHI_EXiZ-101" style="edgeStyle=orthogonalEdgeStyle;rounded=0;orthogonalLoop=1;jettySize=auto;html=1;entryX=0.5;entryY=0;entryDx=0;entryDy=0;" edge="1" parent="1" source="D5_zNUtGiPTcxHI_EXiZ-65" target="D5_zNUtGiPTcxHI_EXiZ-100">
          <mxGeometry relative="1" as="geometry" />
        </mxCell>
        <mxCell id="D5_zNUtGiPTcxHI_EXiZ-65" value="&lt;font style=&quot;font-size: 10px;&quot; face=&quot;Verdana&quot;&gt;Sport that have the longest word is&lt;br&gt;(sport[c])&lt;/font&gt;" style="shape=parallelogram;perimeter=parallelogramPerimeter;whiteSpace=wrap;html=1;fixedSize=1;" vertex="1" parent="1">
          <mxGeometry x="160" y="1480" width="140" height="70" as="geometry" />
        </mxCell>
        <mxCell id="D5_zNUtGiPTcxHI_EXiZ-72" value="" style="edgeStyle=orthogonalEdgeStyle;rounded=0;orthogonalLoop=1;jettySize=auto;html=1;" edge="1" parent="1" source="D5_zNUtGiPTcxHI_EXiZ-66" target="D5_zNUtGiPTcxHI_EXiZ-71">
          <mxGeometry relative="1" as="geometry" />
        </mxCell>
        <mxCell id="D5_zNUtGiPTcxHI_EXiZ-66" value="&lt;font style=&quot;font-size: 10px;&quot; face=&quot;Verdana&quot;&gt;len1=strlen(sport[i])&lt;/font&gt;" style="rounded=0;whiteSpace=wrap;html=1;" vertex="1" parent="1">
          <mxGeometry x="450" y="1470" width="120" height="60" as="geometry" />
        </mxCell>
        <mxCell id="D5_zNUtGiPTcxHI_EXiZ-68" value="&lt;font style=&quot;font-size: 10px;&quot; face=&quot;Verdana&quot;&gt;true&lt;/font&gt;" style="text;html=1;strokeColor=none;fillColor=none;align=center;verticalAlign=middle;whiteSpace=wrap;rounded=0;" vertex="1" parent="1">
          <mxGeometry x="500" y="1400" width="60" height="30" as="geometry" />
        </mxCell>
        <mxCell id="D5_zNUtGiPTcxHI_EXiZ-69" value="&lt;font style=&quot;font-size: 10px;&quot; face=&quot;Verdana&quot;&gt;False&lt;/font&gt;" style="text;html=1;strokeColor=none;fillColor=none;align=center;verticalAlign=middle;whiteSpace=wrap;rounded=0;" vertex="1" parent="1">
          <mxGeometry x="640" y="757.5" width="60" height="30" as="geometry" />
        </mxCell>
        <mxCell id="D5_zNUtGiPTcxHI_EXiZ-70" value="&lt;font style=&quot;font-size: 10px;&quot; face=&quot;Verdana&quot;&gt;False&lt;/font&gt;" style="text;html=1;strokeColor=none;fillColor=none;align=center;verticalAlign=middle;whiteSpace=wrap;rounded=0;" vertex="1" parent="1">
          <mxGeometry x="340" y="1310" width="60" height="30" as="geometry" />
        </mxCell>
        <mxCell id="D5_zNUtGiPTcxHI_EXiZ-74" value="" style="edgeStyle=orthogonalEdgeStyle;rounded=0;orthogonalLoop=1;jettySize=auto;html=1;" edge="1" parent="1" source="D5_zNUtGiPTcxHI_EXiZ-71" target="D5_zNUtGiPTcxHI_EXiZ-73">
          <mxGeometry relative="1" as="geometry" />
        </mxCell>
        <mxCell id="D5_zNUtGiPTcxHI_EXiZ-76" style="edgeStyle=orthogonalEdgeStyle;rounded=0;orthogonalLoop=1;jettySize=auto;html=1;entryX=1;entryY=0.5;entryDx=0;entryDy=0;" edge="1" parent="1" source="D5_zNUtGiPTcxHI_EXiZ-71" target="D5_zNUtGiPTcxHI_EXiZ-66">
          <mxGeometry relative="1" as="geometry">
            <mxPoint x="660" y="1500" as="targetPoint" />
            <Array as="points">
              <mxPoint x="710" y="1640" />
              <mxPoint x="710" y="1500" />
            </Array>
          </mxGeometry>
        </mxCell>
        <mxCell id="D5_zNUtGiPTcxHI_EXiZ-71" value="len1&amp;gt;max" style="rhombus;whiteSpace=wrap;html=1;rounded=0;" vertex="1" parent="1">
          <mxGeometry x="470" y="1600" width="80" height="80" as="geometry" />
        </mxCell>
        <mxCell id="D5_zNUtGiPTcxHI_EXiZ-78" style="edgeStyle=orthogonalEdgeStyle;rounded=0;orthogonalLoop=1;jettySize=auto;html=1;entryX=1;entryY=1;entryDx=0;entryDy=0;" edge="1" parent="1" source="D5_zNUtGiPTcxHI_EXiZ-73" target="D5_zNUtGiPTcxHI_EXiZ-70">
          <mxGeometry relative="1" as="geometry" />
        </mxCell>
        <mxCell id="D5_zNUtGiPTcxHI_EXiZ-73" value="&lt;font style=&quot;font-size: 10px;&quot; face=&quot;Verdana&quot;&gt;c = i&lt;br&gt;max=len1&lt;/font&gt;" style="rounded=0;whiteSpace=wrap;html=1;" vertex="1" parent="1">
          <mxGeometry x="450" y="1770" width="120" height="60" as="geometry" />
        </mxCell>
        <mxCell id="D5_zNUtGiPTcxHI_EXiZ-75" value="&lt;font style=&quot;font-size: 10px;&quot; face=&quot;Verdana&quot;&gt;true&lt;/font&gt;" style="text;html=1;strokeColor=none;fillColor=none;align=center;verticalAlign=middle;whiteSpace=wrap;rounded=0;" vertex="1" parent="1">
          <mxGeometry x="510" y="1700" width="60" height="30" as="geometry" />
        </mxCell>
        <mxCell id="D5_zNUtGiPTcxHI_EXiZ-77" value="&lt;font style=&quot;font-size: 10px;&quot; face=&quot;Verdana&quot;&gt;False&lt;/font&gt;" style="text;html=1;strokeColor=none;fillColor=none;align=center;verticalAlign=middle;whiteSpace=wrap;rounded=0;" vertex="1" parent="1">
          <mxGeometry x="630" y="1470" width="60" height="30" as="geometry" />
        </mxCell>
        <mxCell id="D5_zNUtGiPTcxHI_EXiZ-79" value="" style="edgeStyle=orthogonalEdgeStyle;rounded=0;orthogonalLoop=1;jettySize=auto;html=1;" edge="1" parent="1" source="D5_zNUtGiPTcxHI_EXiZ-80">
          <mxGeometry relative="1" as="geometry">
            <mxPoint x="1412.5" y="1047.5" as="targetPoint" />
          </mxGeometry>
        </mxCell>
        <mxCell id="D5_zNUtGiPTcxHI_EXiZ-80" value="&lt;font style=&quot;font-size: 10px;&quot; face=&quot;Verdana&quot;&gt;&amp;nbsp; &amp;nbsp; strcpy(shortest_word, sport[i])&lt;/font&gt;" style="whiteSpace=wrap;html=1;" vertex="1" parent="1">
          <mxGeometry x="1332.5" y="930" width="160" height="45" as="geometry" />
        </mxCell>
        <mxCell id="D5_zNUtGiPTcxHI_EXiZ-81" style="edgeStyle=orthogonalEdgeStyle;rounded=0;orthogonalLoop=1;jettySize=auto;html=1;entryX=0.5;entryY=0;entryDx=0;entryDy=0;" edge="1" parent="1" target="D5_zNUtGiPTcxHI_EXiZ-84">
          <mxGeometry relative="1" as="geometry">
            <mxPoint x="1412.5" y="1107.5" as="sourcePoint" />
          </mxGeometry>
        </mxCell>
        <mxCell id="D5_zNUtGiPTcxHI_EXiZ-83" value="" style="edgeStyle=orthogonalEdgeStyle;rounded=0;orthogonalLoop=1;jettySize=auto;html=1;" edge="1" parent="1" source="D5_zNUtGiPTcxHI_EXiZ-84" target="D5_zNUtGiPTcxHI_EXiZ-87">
          <mxGeometry relative="1" as="geometry" />
        </mxCell>
        <mxCell id="D5_zNUtGiPTcxHI_EXiZ-84" value="&lt;font style=&quot;font-size: 10px;&quot; face=&quot;Verdana&quot;&gt;min=strlen(sport[0])&lt;/font&gt;" style="rounded=0;whiteSpace=wrap;html=1;" vertex="1" parent="1">
          <mxGeometry x="1352.5" y="1160" width="120" height="60" as="geometry" />
        </mxCell>
        <mxCell id="D5_zNUtGiPTcxHI_EXiZ-85" value="" style="edgeStyle=orthogonalEdgeStyle;rounded=0;orthogonalLoop=1;jettySize=auto;html=1;" edge="1" parent="1" source="D5_zNUtGiPTcxHI_EXiZ-87">
          <mxGeometry relative="1" as="geometry">
            <mxPoint x="1132.5" y="1470" as="targetPoint" />
          </mxGeometry>
        </mxCell>
        <mxCell id="D5_zNUtGiPTcxHI_EXiZ-86" value="" style="edgeStyle=orthogonalEdgeStyle;rounded=0;orthogonalLoop=1;jettySize=auto;html=1;" edge="1" parent="1" source="D5_zNUtGiPTcxHI_EXiZ-87" target="D5_zNUtGiPTcxHI_EXiZ-90">
          <mxGeometry relative="1" as="geometry" />
        </mxCell>
        <mxCell id="D5_zNUtGiPTcxHI_EXiZ-87" value="&lt;font face=&quot;Verdana&quot; style=&quot;font-size: 10px;&quot;&gt;i =1 ; i &amp;lt;x&amp;nbsp;&lt;/font&gt;" style="rhombus;whiteSpace=wrap;html=1;rounded=0;" vertex="1" parent="1">
          <mxGeometry x="1372.5" y="1290" width="80" height="80" as="geometry" />
        </mxCell>
        <mxCell id="D5_zNUtGiPTcxHI_EXiZ-165" style="edgeStyle=orthogonalEdgeStyle;rounded=0;orthogonalLoop=1;jettySize=auto;html=1;entryX=0.5;entryY=0;entryDx=0;entryDy=0;" edge="1" parent="1" source="D5_zNUtGiPTcxHI_EXiZ-88" target="D5_zNUtGiPTcxHI_EXiZ-133">
          <mxGeometry relative="1" as="geometry" />
        </mxCell>
        <mxCell id="D5_zNUtGiPTcxHI_EXiZ-88" value="&lt;font style=&quot;font-size: 10px;&quot; face=&quot;Verdana&quot;&gt;Sport that have the shortest word is&lt;br&gt;(sport[d])&lt;/font&gt;" style="shape=parallelogram;perimeter=parallelogramPerimeter;whiteSpace=wrap;html=1;fixedSize=1;" vertex="1" parent="1">
          <mxGeometry x="1062.5" y="1470" width="140" height="70" as="geometry" />
        </mxCell>
        <mxCell id="D5_zNUtGiPTcxHI_EXiZ-89" value="" style="edgeStyle=orthogonalEdgeStyle;rounded=0;orthogonalLoop=1;jettySize=auto;html=1;" edge="1" parent="1" source="D5_zNUtGiPTcxHI_EXiZ-90" target="D5_zNUtGiPTcxHI_EXiZ-95">
          <mxGeometry relative="1" as="geometry" />
        </mxCell>
        <mxCell id="D5_zNUtGiPTcxHI_EXiZ-90" value="&lt;font style=&quot;font-size: 10px;&quot; face=&quot;Verdana&quot;&gt;len2=strlen(sport[i])&lt;/font&gt;" style="rounded=0;whiteSpace=wrap;html=1;" vertex="1" parent="1">
          <mxGeometry x="1352.5" y="1460" width="120" height="60" as="geometry" />
        </mxCell>
        <mxCell id="D5_zNUtGiPTcxHI_EXiZ-91" value="&lt;font style=&quot;font-size: 10px;&quot; face=&quot;Verdana&quot;&gt;true&lt;/font&gt;" style="text;html=1;strokeColor=none;fillColor=none;align=center;verticalAlign=middle;whiteSpace=wrap;rounded=0;" vertex="1" parent="1">
          <mxGeometry x="1402.5" y="1390" width="60" height="30" as="geometry" />
        </mxCell>
        <mxCell id="D5_zNUtGiPTcxHI_EXiZ-92" value="&lt;font style=&quot;font-size: 10px;&quot; face=&quot;Verdana&quot;&gt;False&lt;/font&gt;" style="text;html=1;strokeColor=none;fillColor=none;align=center;verticalAlign=middle;whiteSpace=wrap;rounded=0;" vertex="1" parent="1">
          <mxGeometry x="1242.5" y="1300" width="60" height="30" as="geometry" />
        </mxCell>
        <mxCell id="D5_zNUtGiPTcxHI_EXiZ-93" value="" style="edgeStyle=orthogonalEdgeStyle;rounded=0;orthogonalLoop=1;jettySize=auto;html=1;" edge="1" parent="1" source="D5_zNUtGiPTcxHI_EXiZ-95" target="D5_zNUtGiPTcxHI_EXiZ-97">
          <mxGeometry relative="1" as="geometry" />
        </mxCell>
        <mxCell id="D5_zNUtGiPTcxHI_EXiZ-94" style="edgeStyle=orthogonalEdgeStyle;rounded=0;orthogonalLoop=1;jettySize=auto;html=1;entryX=1;entryY=0.5;entryDx=0;entryDy=0;" edge="1" parent="1" source="D5_zNUtGiPTcxHI_EXiZ-95" target="D5_zNUtGiPTcxHI_EXiZ-90">
          <mxGeometry relative="1" as="geometry">
            <mxPoint x="1562.5" y="1490" as="targetPoint" />
            <Array as="points">
              <mxPoint x="1612.5" y="1630" />
              <mxPoint x="1612.5" y="1490" />
            </Array>
          </mxGeometry>
        </mxCell>
        <mxCell id="D5_zNUtGiPTcxHI_EXiZ-95" value="len2&amp;gt;min" style="rhombus;whiteSpace=wrap;html=1;rounded=0;" vertex="1" parent="1">
          <mxGeometry x="1372.5" y="1590" width="80" height="80" as="geometry" />
        </mxCell>
        <mxCell id="D5_zNUtGiPTcxHI_EXiZ-96" style="edgeStyle=orthogonalEdgeStyle;rounded=0;orthogonalLoop=1;jettySize=auto;html=1;entryX=1;entryY=1;entryDx=0;entryDy=0;" edge="1" parent="1" source="D5_zNUtGiPTcxHI_EXiZ-97" target="D5_zNUtGiPTcxHI_EXiZ-92">
          <mxGeometry relative="1" as="geometry" />
        </mxCell>
        <mxCell id="D5_zNUtGiPTcxHI_EXiZ-97" value="&lt;font style=&quot;font-size: 10px;&quot; face=&quot;Verdana&quot;&gt;d = i&lt;br&gt;min=len2&lt;/font&gt;" style="rounded=0;whiteSpace=wrap;html=1;" vertex="1" parent="1">
          <mxGeometry x="1352.5" y="1760" width="120" height="60" as="geometry" />
        </mxCell>
        <mxCell id="D5_zNUtGiPTcxHI_EXiZ-98" value="&lt;font style=&quot;font-size: 10px;&quot; face=&quot;Verdana&quot;&gt;true&lt;/font&gt;" style="text;html=1;strokeColor=none;fillColor=none;align=center;verticalAlign=middle;whiteSpace=wrap;rounded=0;" vertex="1" parent="1">
          <mxGeometry x="1412.5" y="1690" width="60" height="30" as="geometry" />
        </mxCell>
        <mxCell id="D5_zNUtGiPTcxHI_EXiZ-99" value="&lt;font style=&quot;font-size: 10px;&quot; face=&quot;Verdana&quot;&gt;False&lt;/font&gt;" style="text;html=1;strokeColor=none;fillColor=none;align=center;verticalAlign=middle;whiteSpace=wrap;rounded=0;" vertex="1" parent="1">
          <mxGeometry x="1532.5" y="1460" width="60" height="30" as="geometry" />
        </mxCell>
        <mxCell id="D5_zNUtGiPTcxHI_EXiZ-103" value="" style="edgeStyle=orthogonalEdgeStyle;rounded=0;orthogonalLoop=1;jettySize=auto;html=1;" edge="1" parent="1" source="D5_zNUtGiPTcxHI_EXiZ-100" target="D5_zNUtGiPTcxHI_EXiZ-102">
          <mxGeometry relative="1" as="geometry" />
        </mxCell>
        <mxCell id="D5_zNUtGiPTcxHI_EXiZ-100" value="&lt;font style=&quot;font-size: 10px;&quot; face=&quot;Verdana&quot;&gt;strcpy(longest_word, sport[i])&lt;/font&gt;" style="whiteSpace=wrap;html=1;" vertex="1" parent="1">
          <mxGeometry x="150" y="1605" width="160" height="45" as="geometry" />
        </mxCell>
        <mxCell id="D5_zNUtGiPTcxHI_EXiZ-105" value="" style="edgeStyle=orthogonalEdgeStyle;rounded=0;orthogonalLoop=1;jettySize=auto;html=1;" edge="1" parent="1" source="D5_zNUtGiPTcxHI_EXiZ-102">
          <mxGeometry relative="1" as="geometry">
            <mxPoint x="230" y="1900.0000000000005" as="targetPoint" />
          </mxGeometry>
        </mxCell>
        <mxCell id="D5_zNUtGiPTcxHI_EXiZ-110" value="" style="edgeStyle=orthogonalEdgeStyle;rounded=0;orthogonalLoop=1;jettySize=auto;html=1;" edge="1" parent="1" source="D5_zNUtGiPTcxHI_EXiZ-102" target="D5_zNUtGiPTcxHI_EXiZ-109">
          <mxGeometry relative="1" as="geometry">
            <Array as="points">
              <mxPoint x="230" y="1840" />
              <mxPoint x="420" y="1840" />
            </Array>
          </mxGeometry>
        </mxCell>
        <mxCell id="D5_zNUtGiPTcxHI_EXiZ-102" value="i =0;&lt;br&gt;longest_word[i] !=&#39;\0&#39;&lt;br&gt;&amp;nbsp;" style="rhombus;whiteSpace=wrap;html=1;" vertex="1" parent="1">
          <mxGeometry x="165" y="1730" width="130" height="80" as="geometry" />
        </mxCell>
        <mxCell id="D5_zNUtGiPTcxHI_EXiZ-168" style="edgeStyle=orthogonalEdgeStyle;rounded=0;orthogonalLoop=1;jettySize=auto;html=1;" edge="1" parent="1" source="D5_zNUtGiPTcxHI_EXiZ-109">
          <mxGeometry relative="1" as="geometry">
            <mxPoint x="660" y="2370" as="targetPoint" />
          </mxGeometry>
        </mxCell>
        <mxCell id="D5_zNUtGiPTcxHI_EXiZ-109" value="&lt;span style=&quot;font-size:10.0pt;mso-bidi-font-size:12.0pt;&lt;br/&gt;line-height:107%;font-family:&amp;quot;Verdana&amp;quot;,sans-serif;mso-fareast-font-family:Calibri;&lt;br/&gt;mso-fareast-theme-font:minor-latin;mso-bidi-font-family:&amp;quot;Cordia New&amp;quot;;&lt;br/&gt;mso-bidi-theme-font:minor-bidi;mso-ansi-language:EN-US;mso-fareast-language:&lt;br/&gt;EN-US;mso-bidi-language:TH&quot;&gt;&lt;br&gt;number of vowel in longest&lt;br&gt;&amp;nbsp;word:(longest_vowels)&lt;/span&gt;&lt;br&gt;" style="shape=parallelogram;perimeter=parallelogramPerimeter;whiteSpace=wrap;html=1;fixedSize=1;" vertex="1" parent="1">
          <mxGeometry x="580" y="1880" width="160" height="100" as="geometry" />
        </mxCell>
        <mxCell id="D5_zNUtGiPTcxHI_EXiZ-112" value="&lt;font style=&quot;font-size: 10px;&quot; face=&quot;Verdana&quot;&gt;False&lt;/font&gt;" style="text;html=1;strokeColor=none;fillColor=none;align=center;verticalAlign=middle;whiteSpace=wrap;rounded=0;" vertex="1" parent="1">
          <mxGeometry x="310" y="1810" width="60" height="30" as="geometry" />
        </mxCell>
        <mxCell id="D5_zNUtGiPTcxHI_EXiZ-113" value="&lt;font style=&quot;font-size: 10px;&quot; face=&quot;Verdana&quot;&gt;true&lt;/font&gt;" style="text;html=1;strokeColor=none;fillColor=none;align=center;verticalAlign=middle;whiteSpace=wrap;rounded=0;" vertex="1" parent="1">
          <mxGeometry x="170" y="1850" width="60" height="30" as="geometry" />
        </mxCell>
        <mxCell id="D5_zNUtGiPTcxHI_EXiZ-115" value="&lt;font style=&quot;font-size: 10px;&quot; face=&quot;Verdana&quot;&gt;char sport[100][50]&lt;br style=&quot;border-color: var(--border-color);&quot;&gt;&amp;nbsp; &amp;nbsp; int shortest_vowels = 0&lt;br style=&quot;border-color: var(--border-color);&quot;&gt;&amp;nbsp; &amp;nbsp; int longest_vowels = 0&lt;br style=&quot;border-color: var(--border-color);&quot;&gt;&amp;nbsp; &amp;nbsp; char longest_word[50]&lt;br style=&quot;border-color: var(--border-color);&quot;&gt;&amp;nbsp; &amp;nbsp; char shortest_word[50]&lt;br style=&quot;border-color: var(--border-color);&quot;&gt;&amp;nbsp; &amp;nbsp; int i,c,d,x&lt;/font&gt;" style="rounded=0;whiteSpace=wrap;html=1;" vertex="1" parent="1">
          <mxGeometry x="100" y="-20" width="140" height="110" as="geometry" />
        </mxCell>
        <mxCell id="D5_zNUtGiPTcxHI_EXiZ-116" value="&lt;font style=&quot;font-size: 10px;&quot; face=&quot;Verdana&quot;&gt;int m,min,len2&lt;/font&gt;" style="rounded=0;whiteSpace=wrap;html=1;" vertex="1" parent="1">
          <mxGeometry x="1352.5" y="1050" width="120" height="60" as="geometry" />
        </mxCell>
        <mxCell id="D5_zNUtGiPTcxHI_EXiZ-117" value="&lt;font style=&quot;font-size: 10px;&quot; face=&quot;Verdana&quot;&gt;int i,max,len1&lt;/font&gt;" style="rounded=0;whiteSpace=wrap;html=1;" vertex="1" parent="1">
          <mxGeometry x="450" y="1060" width="120" height="60" as="geometry" />
        </mxCell>
        <mxCell id="D5_zNUtGiPTcxHI_EXiZ-120" value="" style="edgeStyle=orthogonalEdgeStyle;rounded=0;orthogonalLoop=1;jettySize=auto;html=1;" edge="1" parent="1" source="D5_zNUtGiPTcxHI_EXiZ-118" target="D5_zNUtGiPTcxHI_EXiZ-119">
          <mxGeometry relative="1" as="geometry" />
        </mxCell>
        <mxCell id="D5_zNUtGiPTcxHI_EXiZ-118" value="&lt;font style=&quot;font-size: 10px;&quot; face=&quot;Verdana&quot;&gt;int y= longest_word[i]&lt;/font&gt;" style="rounded=0;whiteSpace=wrap;html=1;" vertex="1" parent="1">
          <mxGeometry x="170" y="1900" width="120" height="60" as="geometry" />
        </mxCell>
        <mxCell id="D5_zNUtGiPTcxHI_EXiZ-145" style="edgeStyle=orthogonalEdgeStyle;rounded=0;orthogonalLoop=1;jettySize=auto;html=1;entryX=0.5;entryY=1;entryDx=0;entryDy=0;" edge="1" parent="1" source="D5_zNUtGiPTcxHI_EXiZ-119" target="D5_zNUtGiPTcxHI_EXiZ-122">
          <mxGeometry relative="1" as="geometry">
            <mxPoint y="2160" as="targetPoint" />
            <Array as="points">
              <mxPoint x="31" y="2125" />
              <mxPoint x="31" y="2040" />
            </Array>
          </mxGeometry>
        </mxCell>
        <mxCell id="D5_zNUtGiPTcxHI_EXiZ-149" style="edgeStyle=orthogonalEdgeStyle;rounded=0;orthogonalLoop=1;jettySize=auto;html=1;" edge="1" parent="1" source="D5_zNUtGiPTcxHI_EXiZ-119">
          <mxGeometry relative="1" as="geometry">
            <mxPoint x="510" y="1930" as="targetPoint" />
          </mxGeometry>
        </mxCell>
        <mxCell id="D5_zNUtGiPTcxHI_EXiZ-119" value="&lt;font style=&quot;font-size: 10px;&quot; face=&quot;Verdana&quot;&gt;y == &#39;a&#39;||y == &#39;i&#39;||y == &#39;u&#39;||y == &#39;e&#39;||&lt;br&gt;y ==&#39;o&#39;||y== &#39;A&#39;||y == &#39;I&#39;||y == &#39;U&#39;||y == &#39;E&#39;||y ==&#39;O&#39;&lt;/font&gt;" style="rhombus;whiteSpace=wrap;html=1;rounded=0;" vertex="1" parent="1">
          <mxGeometry x="90" y="2050" width="280" height="150" as="geometry" />
        </mxCell>
        <mxCell id="D5_zNUtGiPTcxHI_EXiZ-147" value="" style="edgeStyle=orthogonalEdgeStyle;rounded=0;orthogonalLoop=1;jettySize=auto;html=1;" edge="1" parent="1" source="D5_zNUtGiPTcxHI_EXiZ-122" target="D5_zNUtGiPTcxHI_EXiZ-146">
          <mxGeometry relative="1" as="geometry" />
        </mxCell>
        <mxCell id="D5_zNUtGiPTcxHI_EXiZ-122" value="&lt;font style=&quot;font-size: 10px;&quot; face=&quot;Verdana&quot;&gt;longest_vowels ++&lt;/font&gt;" style="whiteSpace=wrap;html=1;rounded=0;" vertex="1" parent="1">
          <mxGeometry x="-30" y="1970" width="120" height="60" as="geometry" />
        </mxCell>
        <mxCell id="D5_zNUtGiPTcxHI_EXiZ-124" value="&lt;font style=&quot;font-size: 10px;&quot; face=&quot;Verdana&quot;&gt;true&lt;/font&gt;" style="text;html=1;strokeColor=none;fillColor=none;align=center;verticalAlign=middle;whiteSpace=wrap;rounded=0;" vertex="1" parent="1">
          <mxGeometry x="40" y="2090" width="60" height="30" as="geometry" />
        </mxCell>
        <mxCell id="D5_zNUtGiPTcxHI_EXiZ-127" value="&lt;font style=&quot;font-size: 10px;&quot; face=&quot;Verdana&quot;&gt;False&lt;/font&gt;" style="text;html=1;strokeColor=none;fillColor=none;align=center;verticalAlign=middle;whiteSpace=wrap;rounded=0;" vertex="1" parent="1">
          <mxGeometry x="420" y="2100" width="60" height="30" as="geometry" />
        </mxCell>
        <mxCell id="D5_zNUtGiPTcxHI_EXiZ-132" value="" style="edgeStyle=orthogonalEdgeStyle;rounded=0;orthogonalLoop=1;jettySize=auto;html=1;" edge="1" parent="1" source="D5_zNUtGiPTcxHI_EXiZ-133" target="D5_zNUtGiPTcxHI_EXiZ-136">
          <mxGeometry relative="1" as="geometry" />
        </mxCell>
        <mxCell id="D5_zNUtGiPTcxHI_EXiZ-133" value="&lt;font style=&quot;font-size: 10px;&quot; face=&quot;Verdana&quot;&gt;strcpy(shortest_word,sport[d])&lt;/font&gt;" style="whiteSpace=wrap;html=1;" vertex="1" parent="1">
          <mxGeometry x="1032.5" y="1650" width="160" height="40" as="geometry" />
        </mxCell>
        <mxCell id="D5_zNUtGiPTcxHI_EXiZ-134" value="" style="edgeStyle=orthogonalEdgeStyle;rounded=0;orthogonalLoop=1;jettySize=auto;html=1;" edge="1" parent="1" source="D5_zNUtGiPTcxHI_EXiZ-136">
          <mxGeometry relative="1" as="geometry">
            <mxPoint x="1112.5" y="1940.0000000000005" as="targetPoint" />
          </mxGeometry>
        </mxCell>
        <mxCell id="D5_zNUtGiPTcxHI_EXiZ-135" value="" style="edgeStyle=orthogonalEdgeStyle;rounded=0;orthogonalLoop=1;jettySize=auto;html=1;" edge="1" parent="1" source="D5_zNUtGiPTcxHI_EXiZ-136">
          <mxGeometry relative="1" as="geometry">
            <mxPoint x="1472.5" y="1970" as="targetPoint" />
            <Array as="points">
              <mxPoint x="1112.5" y="1880" />
              <mxPoint x="1302.5" y="1880" />
            </Array>
          </mxGeometry>
        </mxCell>
        <mxCell id="D5_zNUtGiPTcxHI_EXiZ-136" value="&lt;font style=&quot;font-size: 10px;&quot; face=&quot;Verdana&quot;&gt;&amp;nbsp;i =0;shortest_word[i] !=&#39;\0&#39;&lt;/font&gt;" style="rhombus;whiteSpace=wrap;html=1;" vertex="1" parent="1">
          <mxGeometry x="1035" y="1750" width="155" height="100" as="geometry" />
        </mxCell>
        <mxCell id="D5_zNUtGiPTcxHI_EXiZ-137" value="&lt;font style=&quot;font-size: 10px;&quot; face=&quot;Verdana&quot;&gt;False&lt;/font&gt;" style="text;html=1;strokeColor=none;fillColor=none;align=center;verticalAlign=middle;whiteSpace=wrap;rounded=0;" vertex="1" parent="1">
          <mxGeometry x="1192.5" y="1850" width="60" height="30" as="geometry" />
        </mxCell>
        <mxCell id="D5_zNUtGiPTcxHI_EXiZ-138" value="&lt;font style=&quot;font-size: 10px;&quot; face=&quot;Verdana&quot;&gt;true&lt;/font&gt;" style="text;html=1;strokeColor=none;fillColor=none;align=center;verticalAlign=middle;whiteSpace=wrap;rounded=0;" vertex="1" parent="1">
          <mxGeometry x="1052.5" y="1890" width="60" height="30" as="geometry" />
        </mxCell>
        <mxCell id="D5_zNUtGiPTcxHI_EXiZ-139" value="" style="edgeStyle=orthogonalEdgeStyle;rounded=0;orthogonalLoop=1;jettySize=auto;html=1;" edge="1" parent="1" source="D5_zNUtGiPTcxHI_EXiZ-140">
          <mxGeometry relative="1" as="geometry">
            <mxPoint x="1112.5" y="2090" as="targetPoint" />
          </mxGeometry>
        </mxCell>
        <mxCell id="D5_zNUtGiPTcxHI_EXiZ-140" value="&lt;font style=&quot;font-size: 10px;&quot; face=&quot;Verdana&quot;&gt;int z =shortest_word[i];&lt;/font&gt;" style="rounded=0;whiteSpace=wrap;html=1;" vertex="1" parent="1">
          <mxGeometry x="1052.5" y="1940" width="120" height="60" as="geometry" />
        </mxCell>
        <mxCell id="D5_zNUtGiPTcxHI_EXiZ-142" style="edgeStyle=orthogonalEdgeStyle;rounded=0;orthogonalLoop=1;jettySize=auto;html=1;exitX=1;exitY=0.5;exitDx=0;exitDy=0;" edge="1" parent="1" source="D5_zNUtGiPTcxHI_EXiZ-161">
          <mxGeometry relative="1" as="geometry">
            <mxPoint x="1392.5" y="1970" as="targetPoint" />
            <mxPoint x="1392.5" y="2170" as="sourcePoint" />
          </mxGeometry>
        </mxCell>
        <mxCell id="D5_zNUtGiPTcxHI_EXiZ-148" style="edgeStyle=orthogonalEdgeStyle;rounded=0;orthogonalLoop=1;jettySize=auto;html=1;entryX=0;entryY=0.5;entryDx=0;entryDy=0;" edge="1" parent="1" source="D5_zNUtGiPTcxHI_EXiZ-146" target="D5_zNUtGiPTcxHI_EXiZ-102">
          <mxGeometry relative="1" as="geometry">
            <Array as="points">
              <mxPoint x="30" y="1770" />
            </Array>
          </mxGeometry>
        </mxCell>
        <mxCell id="D5_zNUtGiPTcxHI_EXiZ-146" value="&lt;font style=&quot;font-size: 10px;&quot; face=&quot;Verdana&quot;&gt;i++&lt;/font&gt;" style="whiteSpace=wrap;html=1;rounded=0;" vertex="1" parent="1">
          <mxGeometry x="-30" y="1830" width="120" height="60" as="geometry" />
        </mxCell>
        <mxCell id="D5_zNUtGiPTcxHI_EXiZ-155" style="edgeStyle=orthogonalEdgeStyle;rounded=0;orthogonalLoop=1;jettySize=auto;html=1;entryX=0.5;entryY=1;entryDx=0;entryDy=0;exitX=0;exitY=0.5;exitDx=0;exitDy=0;" edge="1" parent="1" target="D5_zNUtGiPTcxHI_EXiZ-157" source="D5_zNUtGiPTcxHI_EXiZ-161">
          <mxGeometry relative="1" as="geometry">
            <mxPoint x="870" y="2190" as="targetPoint" />
            <mxPoint x="960" y="2155" as="sourcePoint" />
            <Array as="points">
              <mxPoint x="901.5" y="2165" />
              <mxPoint x="901.5" y="2070" />
              <mxPoint x="900.5" y="2070" />
            </Array>
          </mxGeometry>
        </mxCell>
        <mxCell id="D5_zNUtGiPTcxHI_EXiZ-156" value="" style="edgeStyle=orthogonalEdgeStyle;rounded=0;orthogonalLoop=1;jettySize=auto;html=1;" edge="1" parent="1" source="D5_zNUtGiPTcxHI_EXiZ-157" target="D5_zNUtGiPTcxHI_EXiZ-160">
          <mxGeometry relative="1" as="geometry" />
        </mxCell>
        <mxCell id="D5_zNUtGiPTcxHI_EXiZ-157" value="&lt;font style=&quot;font-size: 10px;&quot; face=&quot;Verdana&quot;&gt;shortest_vowels ++&lt;/font&gt;" style="whiteSpace=wrap;html=1;rounded=0;" vertex="1" parent="1">
          <mxGeometry x="840" y="2000" width="120" height="60" as="geometry" />
        </mxCell>
        <mxCell id="D5_zNUtGiPTcxHI_EXiZ-158" value="&lt;font style=&quot;font-size: 10px;&quot; face=&quot;Verdana&quot;&gt;true&lt;/font&gt;" style="text;html=1;strokeColor=none;fillColor=none;align=center;verticalAlign=middle;whiteSpace=wrap;rounded=0;" vertex="1" parent="1">
          <mxGeometry x="910" y="2120" width="60" height="30" as="geometry" />
        </mxCell>
        <mxCell id="D5_zNUtGiPTcxHI_EXiZ-159" style="edgeStyle=orthogonalEdgeStyle;rounded=0;orthogonalLoop=1;jettySize=auto;html=1;entryX=0;entryY=0.5;entryDx=0;entryDy=0;" edge="1" parent="1" source="D5_zNUtGiPTcxHI_EXiZ-160">
          <mxGeometry relative="1" as="geometry">
            <Array as="points">
              <mxPoint x="900" y="1800" />
            </Array>
            <mxPoint x="1035" y="1800" as="targetPoint" />
          </mxGeometry>
        </mxCell>
        <mxCell id="D5_zNUtGiPTcxHI_EXiZ-160" value="&lt;font style=&quot;font-size: 10px;&quot; face=&quot;Verdana&quot;&gt;i++&lt;/font&gt;" style="whiteSpace=wrap;html=1;rounded=0;" vertex="1" parent="1">
          <mxGeometry x="840" y="1860" width="120" height="60" as="geometry" />
        </mxCell>
        <mxCell id="D5_zNUtGiPTcxHI_EXiZ-161" value="&lt;font style=&quot;font-size: 10px;&quot; face=&quot;Verdana&quot;&gt;z == &#39;a&#39;||z == &#39;i&#39;||z == &#39;u&#39;||z == &#39;e&#39;||&lt;br&gt;z ==&#39;o&#39;||z== &#39;A&#39;||z == &#39;I&#39;||z == &#39;U&#39;&lt;br&gt;||z == &#39;E&#39;||z ==&#39;O&#39;&lt;/font&gt;" style="rhombus;whiteSpace=wrap;html=1;rounded=0;" vertex="1" parent="1">
          <mxGeometry x="972.5" y="2090" width="280" height="150" as="geometry" />
        </mxCell>
        <mxCell id="D5_zNUtGiPTcxHI_EXiZ-162" value="&lt;font style=&quot;font-size: 10px;&quot; face=&quot;Verdana&quot;&gt;False&lt;/font&gt;" style="text;html=1;strokeColor=none;fillColor=none;align=center;verticalAlign=middle;whiteSpace=wrap;rounded=0;" vertex="1" parent="1">
          <mxGeometry x="1292.5" y="2130" width="60" height="30" as="geometry" />
        </mxCell>
        <mxCell id="D5_zNUtGiPTcxHI_EXiZ-177" style="edgeStyle=orthogonalEdgeStyle;rounded=0;orthogonalLoop=1;jettySize=auto;html=1;" edge="1" parent="1" source="D5_zNUtGiPTcxHI_EXiZ-164">
          <mxGeometry relative="1" as="geometry">
            <mxPoint x="1542.5" y="2370" as="targetPoint" />
          </mxGeometry>
        </mxCell>
        <mxCell id="D5_zNUtGiPTcxHI_EXiZ-164" value="&lt;span style=&quot;font-size:10.0pt;mso-bidi-font-size:12.0pt;&lt;br/&gt;line-height:107%;font-family:&amp;quot;Verdana&amp;quot;,sans-serif;mso-fareast-font-family:Calibri;&lt;br/&gt;mso-fareast-theme-font:minor-latin;mso-bidi-font-family:&amp;quot;Cordia New&amp;quot;;&lt;br/&gt;mso-bidi-theme-font:minor-bidi;mso-ansi-language:EN-US;mso-fareast-language:&lt;br/&gt;EN-US;mso-bidi-language:TH&quot;&gt;&lt;br&gt;number of vowel in lshortest word:(shortest_vowels)&lt;/span&gt;" style="shape=parallelogram;perimeter=parallelogramPerimeter;whiteSpace=wrap;html=1;fixedSize=1;" vertex="1" parent="1">
          <mxGeometry x="1462.5" y="1920" width="160" height="100" as="geometry" />
        </mxCell>
        <mxCell id="D5_zNUtGiPTcxHI_EXiZ-167" value="" style="endArrow=classic;html=1;rounded=0;entryX=0.51;entryY=-0.119;entryDx=0;entryDy=0;entryPerimeter=0;" edge="1" parent="1" target="D5_zNUtGiPTcxHI_EXiZ-80">
          <mxGeometry width="50" height="50" relative="1" as="geometry">
            <mxPoint x="750" y="820" as="sourcePoint" />
            <mxPoint x="1410" y="820" as="targetPoint" />
            <Array as="points">
              <mxPoint x="1414" y="820" />
            </Array>
          </mxGeometry>
        </mxCell>
        <mxCell id="D5_zNUtGiPTcxHI_EXiZ-172" value="" style="endArrow=none;html=1;rounded=0;" edge="1" parent="1">
          <mxGeometry width="50" height="50" relative="1" as="geometry">
            <mxPoint x="660" y="2370" as="sourcePoint" />
            <mxPoint x="2080" y="2370" as="targetPoint" />
          </mxGeometry>
        </mxCell>
        <mxCell id="D5_zNUtGiPTcxHI_EXiZ-173" value="" style="endArrow=classic;html=1;rounded=0;" edge="1" parent="1">
          <mxGeometry width="50" height="50" relative="1" as="geometry">
            <mxPoint x="1451.3899999999999" y="2370" as="sourcePoint" />
            <mxPoint x="1451.3899999999999" y="2470" as="targetPoint" />
          </mxGeometry>
        </mxCell>
        <mxCell id="D5_zNUtGiPTcxHI_EXiZ-174" value="&lt;font style=&quot;font-size: 10px;&quot; face=&quot;Verdana&quot;&gt;End&lt;/font&gt;" style="rounded=1;whiteSpace=wrap;html=1;" vertex="1" parent="1">
          <mxGeometry x="1360" y="2470" width="180" height="70" as="geometry" />
        </mxCell>
      </root>
    </mxGraphModel>
  </diagram>
</mxfile>
